<?xml version="1.0" standalone="no"?>
<!DOCTYPE svg PUBLIC "-//W3C//DTD SVG 20010904//EN"
 "http://www.w3.org/TR/2001/REC-SVG-20010904/DTD/svg10.dtd">
<svg version="1.0" xmlns="http://www.w3.org/2000/svg"
 width="700.000000pt" height="700.000000pt" viewBox="0 0 700.000000 700.000000"
 preserveAspectRatio="xMidYMid meet">
<metadata>
Created by potrace 1.14, written by Peter Selinger 2001-2017
</metadata>
<g transform="translate(0.000000,700.000000) scale(0.100000,-0.100000)"
fill="#000000" stroke="none">
<path d="M45 3493 l0 -3488 763 -3 762 -2 0 1965 0 1965 725 0 724 0 0 703 c0
386 0 729 1 762 l0 60 1214 0 1214 0 0 762 0 763 -1234 0 -1234 0 2 -763 3
-762 -707 0 -708 0 0 762 0 763 -763 0 -762 0 0 -3487z"/>
<path d="M5440 2725 l0 -2715 763 0 763 0 0 2715 0 2715 -763 0 -763 0 0
-2715z"/>
</g>
</svg>
